<svg width="1506" height="886" viewBox="0 0 1506 886" fill="none" xmlns="http://www.w3.org/2000/svg">
<path d="M1506 0H0V886H1506V0Z" fill="url(#paint0_linear_49_534)"/>
<mask id="mask0_49_534" style="mask-type:luminance" maskUnits="userSpaceOnUse" x="0" y="0" width="1506" height="886">
<path d="M1506 0H0V886H1506V0Z" fill="white"/>
</mask>
<g mask="url(#mask0_49_534)">
<g opacity="0.1">
<path d="M1038.52 -482.121L969.543 589.107L909.283 -482.643L1038.52 -482.121Z" fill="white"/>
<path d="M900.568 1659.77L969.543 588.545L1029.8 1660.29L900.568 1659.77Z" fill="white"/>
<path d="M2040.51 657.801L969.261 588.826L2041.03 528.586L2040.51 657.801Z" fill="white"/>
<path d="M-101.404 519.871L969.824 588.826L-101.946 649.066L-101.404 519.871Z" fill="white"/>
<path d="M1775.59 -119.697L969.342 589.027L1684.59 -211.442L1775.59 -119.697Z" fill="white"/>
<path d="M163.491 1297.35L969.743 588.605L254.494 1389.07L163.491 1297.35Z" fill="white"/>
<path d="M1678.07 1394.88L969.342 588.625L1769.81 1303.87L1678.07 1394.88Z" fill="white"/>
<path d="M261.04 -217.225L969.743 589.027L169.294 -126.243L261.04 -217.225Z" fill="white"/>
<path d="M1443.37 -374.07L969.442 589.087L1324.2 -424.049L1443.37 -374.07Z" fill="white"/>
<path d="M495.715 1551.72L969.663 588.545L614.87 1601.68L495.715 1551.72Z" fill="white"/>
<path d="M1932.46 1062.65L969.282 588.705L1982.42 943.499L1932.46 1062.65Z" fill="white"/>
<path d="M6.6463 114.978L969.824 588.926L-43.3328 234.153L6.6463 114.978Z" fill="white"/>
<path d="M1985.47 242.988L969.282 588.926L1936.54 123.392L1985.47 242.988Z" fill="white"/>
<path d="M-46.3848 934.664L969.824 588.705L2.55019 1054.26L-46.3848 934.664Z" fill="white"/>
<path d="M1315.38 1604.73L969.442 588.545L1434.98 1555.84L1315.38 1604.73Z" fill="white"/>
<path d="M623.725 -427.082L969.663 589.087L504.129 -378.167L623.725 -427.082Z" fill="white"/>
</g>
<path opacity="0.3" d="M969.864 777.919C930.252 777.923 891.528 766.18 858.59 744.176C825.652 722.172 799.979 690.894 784.817 654.298C769.656 617.703 765.686 577.433 773.412 538.581C781.137 499.73 800.21 464.042 828.219 436.031C856.228 408.019 891.914 388.943 930.764 381.213C969.615 373.484 1009.89 377.449 1046.48 392.607C1083.08 407.765 1114.36 433.435 1136.37 466.371C1158.38 499.307 1170.12 538.029 1170.12 577.641C1170.06 630.737 1148.95 681.641 1111.4 719.187C1073.86 756.734 1022.96 777.855 969.864 777.919Z" fill="#FFDD15"/>
<path d="M969.864 742.96C937.179 742.96 905.228 733.268 878.051 715.109C850.875 696.95 829.693 671.14 817.185 640.943C804.677 610.746 801.405 577.518 807.781 545.461C814.158 513.404 829.897 483.958 853.009 460.846C876.121 437.734 905.567 421.995 937.624 415.619C969.681 409.242 1002.91 412.515 1033.11 425.023C1063.3 437.531 1089.11 458.712 1107.27 485.889C1125.43 513.066 1135.12 545.017 1135.12 577.702C1135.07 621.516 1117.65 663.523 1086.67 694.504C1055.68 725.486 1013.68 742.912 969.864 742.96Z" fill="#F9C300"/>
<path opacity="0.4" d="M886.432 162.648C886.291 156.624 882.416 151.845 877.597 151.845C875.606 151.866 873.703 152.666 872.295 154.074C869.886 149.797 864.263 146.805 857.758 146.805C856.266 146.802 854.779 146.957 853.32 147.267C852.804 145.498 851.757 143.93 850.32 142.777C848.883 141.624 847.126 140.941 845.288 140.821C843.969 140.872 842.682 141.239 841.536 141.893C840.389 142.547 839.417 143.467 838.702 144.576C836.931 142.516 834.727 140.873 832.247 139.763C829.767 138.653 827.073 138.105 824.357 138.157C821.641 138.209 818.97 138.859 816.535 140.063C814.099 141.266 811.96 142.992 810.268 145.118C802.236 145.741 797.678 153.712 796.714 158.391C795.871 158.391 782.96 158.391 781.494 171.905C780.409 181.945 789.726 187.286 797.678 187.286C801.563 187.385 805.379 186.253 808.582 184.053C810.998 183.415 813.098 181.915 814.485 179.836C816.935 186.001 821.975 190.218 827.818 190.218C830.325 190.136 832.763 189.386 834.882 188.044C837 186.702 838.721 184.818 839.866 182.587C841.366 183.682 843.17 184.279 845.027 184.294C846.384 184.243 847.714 183.897 848.925 183.279C850.135 182.662 851.196 181.789 852.035 180.72C852.817 182.401 854.044 183.837 855.584 184.87C857.124 185.904 858.917 186.496 860.77 186.583C862.77 186.477 864.696 185.793 866.314 184.613C867.932 183.433 869.173 181.808 869.886 179.937C890.608 182.587 897.094 175.579 897.094 170.238C897.094 167.126 892.094 162.086 886.432 162.648Z" fill="url(#paint1_linear_49_534)"/>
<path opacity="0.4" d="M1369.46 481.92C1334.71 481.879 1301.14 494.541 1275.08 517.522C1264.42 492.614 1246.92 471.24 1224.6 455.883C1202.28 440.526 1176.06 431.816 1148.99 430.764C1121.92 429.713 1095.1 436.363 1071.66 449.943C1048.22 463.523 1029.11 483.475 1016.55 507.482C986.458 495.239 953.098 493.593 921.947 502.814C890.796 512.035 863.707 531.574 845.127 558.224C828.456 543.619 807.441 534.906 785.326 533.429C763.212 531.952 741.225 537.793 722.76 550.051C698.829 527.536 666.958 515.41 634.114 516.325C601.269 517.239 570.122 531.119 547.481 554.931C537.877 538.337 524.31 524.383 507.993 514.316C491.676 504.249 473.118 498.383 453.98 497.243C434.841 496.103 415.718 499.725 398.322 507.784C380.925 515.843 365.797 528.089 354.292 543.425C350.662 503.798 335.316 466.149 310.209 435.276C285.103 404.403 251.372 381.705 213.317 370.074C175.262 358.443 134.605 358.406 96.5291 369.967C58.4528 381.529 24.6811 404.166 -0.481812 434.993V688.583C14.6791 707.16 33.0402 722.876 53.7342 734.988C40.823 749.497 30.9996 766.481 24.8619 784.907C18.7242 803.333 16.4007 822.815 18.0328 842.168C19.6649 861.521 25.2184 880.339 34.3554 897.477C43.4924 914.615 56.0216 929.714 71.1802 941.855C86.3389 953.996 103.81 962.925 122.529 968.099C141.249 973.272 160.826 974.582 180.068 971.948C199.31 969.314 217.814 962.792 234.455 952.778C251.096 942.764 265.525 929.468 276.863 913.7C306.989 935.064 344.209 943.95 380.737 938.499C396.811 952.358 415.767 962.467 436.231 968.096C456.695 973.725 478.154 974.731 499.055 971.043C519.956 967.354 539.775 959.063 557.076 946.77C574.377 934.477 588.727 918.489 599.087 899.966C604.642 900.569 610.226 900.877 615.813 900.889C631.832 900.892 647.751 898.364 662.981 893.399C683.015 920.853 712.167 940.279 745.217 948.201C778.267 956.122 813.058 952.021 843.36 936.632C869.727 950.03 899.598 954.926 928.862 950.647C958.126 946.368 985.345 933.123 1006.77 912.736C1027.92 939.559 1057.97 957.93 1091.48 964.526C1125 971.122 1159.76 965.508 1189.5 948.7C1215.89 942.851 1240.08 929.62 1259.24 910.548C1279.24 930.444 1304.68 943.99 1332.35 949.488C1360.02 954.985 1388.71 952.19 1414.8 941.451C1437.65 969.673 1470.4 988.132 1506.38 993.077V584.167C1497.59 554.668 1479.51 528.789 1454.85 510.37C1430.18 491.952 1400.24 481.975 1369.46 481.92Z" fill="white"/>
<path opacity="0.4" d="M555.433 161.945C555.433 145.881 534.55 132.93 508.787 132.93C499.309 132.827 489.918 134.744 481.238 138.552C478.94 133.473 475.308 129.112 470.729 125.933C466.151 122.753 460.796 120.874 455.234 120.495C449.673 120.116 444.112 121.251 439.145 123.78C434.177 126.309 429.987 130.137 427.022 134.857C421.718 133.847 416.228 134.866 411.64 137.71C407.051 140.555 403.697 145.019 402.243 150.218C373.107 145.982 359.111 160.519 359.111 172.086C359.111 184.134 379.994 194.033 405.757 194.033C408.628 194.033 411.439 193.892 414.17 193.651C419.09 207.286 451.579 216.543 472.503 194.836C483.768 210.579 514.008 210.579 520.153 189.997C540.393 186.905 555.433 175.519 555.433 161.945Z" fill="white"/>
<path opacity="0.6" d="M995.968 179.997C996.209 196.664 1016.39 209.896 1041.03 209.535C1050.16 209.491 1059.16 207.355 1067.33 203.29C1069.26 208.459 1072.64 212.958 1077.08 216.239C1081.51 219.519 1086.8 221.44 1092.31 221.768C1097.81 222.095 1103.3 220.816 1108.09 218.084C1112.88 215.352 1116.78 211.287 1119.3 206.382C1120.62 206.634 1121.97 206.748 1123.32 206.724C1127.99 206.586 1132.48 204.855 1136.05 201.817C1139.61 198.778 1142.02 194.616 1142.89 190.017C1170.66 194.033 1183.8 178.712 1183.64 166.664C1183.45 154.034 1163.31 144.094 1138.68 144.456C1135.93 144.456 1133.23 144.676 1130.64 144.958C1125.72 130.902 1104.86 120.46 1080 120.862C1052.97 121.243 1031.03 134.195 1029.3 150.259C1009.9 153.793 995.667 165.841 995.968 179.997Z" fill="white"/>
<path d="M1502.95 204.495C1502.51 183.21 1490.56 166.162 1475.84 166.162C1472.73 166.266 1469.67 167.024 1466.87 168.387C1464.06 169.75 1461.58 171.688 1459.58 174.074C1452.19 158.913 1435 148.291 1414.96 148.291C1410.38 148.291 1405.82 148.858 1401.38 149.978C1397.07 136.484 1387.69 127.127 1376.79 127.127C1368.75 127.127 1361.46 132.287 1356.5 140.42C1351.63 133.244 1345.03 127.404 1337.31 123.433C1329.6 119.462 1321.01 117.486 1312.33 117.686C1303.66 117.885 1295.17 120.254 1287.65 124.576C1280.12 128.898 1273.8 135.035 1269.26 142.428C1244.5 144.576 1224.88 157.729 1222.01 174.295C1219.39 173.883 1216.75 173.675 1214.1 173.672C1189.22 173.672 1162.25 191.905 1162.25 214.434C1162.25 228.49 1176.89 240.84 1188.8 248.169C1187.24 251.502 1186.42 255.133 1186.41 258.811C1186.41 277.024 1206.21 291.803 1230.58 291.803C1242.75 292.059 1254.61 287.996 1264.06 280.337C1271.18 278.329 1277.51 273.008 1282.13 265.418C1289.64 287.224 1305.12 302.224 1323.03 302.224C1338.13 302.224 1351.52 291.562 1359.84 275.156C1364.25 278.952 1369.84 281.084 1375.66 281.18C1384.01 281.18 1391.6 276.522 1397.35 268.952C1403.15 281.482 1412.99 289.714 1424.17 289.714C1436.22 289.714 1446.56 280.237 1452.13 266.161C1515.72 275.558 1535.62 250.719 1535.62 231.763C1535.7 220.659 1520.32 202.808 1502.95 204.495Z" fill="url(#paint2_linear_49_534)"/>
<path d="M785.53 267.205C785.269 254.835 778.321 244.916 769.767 244.916C767.956 244.974 766.178 245.414 764.548 246.207C762.918 246.999 761.474 248.126 760.309 249.514C756.012 240.699 746.012 234.514 734.366 234.514C731.697 234.516 729.039 234.854 726.454 235.518C723.944 227.667 718.422 222.225 712.157 222.225C707.459 222.225 703.262 225.217 700.37 229.936C697.532 225.765 693.695 222.371 689.21 220.062C684.724 217.753 679.732 216.604 674.688 216.717C669.645 216.831 664.71 218.205 660.333 220.714C655.956 223.222 652.276 226.786 649.628 231.081C635.231 232.346 623.846 240.016 622.139 249.655C620.618 249.411 619.08 249.291 617.54 249.293C603.083 249.293 587.42 259.895 587.42 272.988C587.42 281.14 595.934 288.349 602.862 292.606C601.961 294.544 601.489 296.653 601.476 298.79C601.476 309.393 612.982 317.987 627.179 317.987C634.238 318.095 641.108 315.706 646.576 311.24C651.058 309.791 654.821 306.689 657.098 302.565C661.455 315.256 670.471 323.971 680.893 323.971C689.668 323.971 697.459 317.766 702.298 308.228C704.856 310.442 708.112 311.686 711.495 311.742C714.006 311.627 716.456 310.923 718.646 309.689C720.836 308.454 722.706 306.723 724.105 304.634C727.478 311.903 733.201 316.682 739.707 316.682C746.655 316.682 752.719 311.16 755.972 302.987C792.939 308.449 804.505 294.011 804.505 282.907C804.566 276.602 795.63 266.221 785.53 267.205Z" fill="url(#paint3_linear_49_534)"/>
<path opacity="0.6" d="M-8.73468 464.29V1112.43H1514.73V514.048C1465.75 493.76 1410.78 493.459 1361.58 513.208C1312.38 532.957 1272.87 571.186 1251.51 619.709C1231.45 611.517 1209.89 607.651 1188.24 608.364C1166.59 609.077 1145.33 614.353 1125.86 623.847C1106.39 633.342 1089.14 646.84 1075.25 663.459C1061.35 680.078 1051.12 699.444 1045.22 720.29C1019.51 706.823 990.5 700.909 961.562 703.233C932.623 705.557 904.933 716.023 881.693 733.422C878.28 719.231 871.22 706.179 861.21 695.556C851.201 684.934 838.59 677.111 824.627 672.863C810.664 668.614 795.833 668.087 781.604 671.334C767.374 674.581 754.24 681.489 743.502 691.375C741.124 656.114 725.923 622.943 700.767 598.12C675.612 573.297 642.242 558.538 606.952 556.628C571.663 554.719 536.895 565.79 509.208 587.754C481.521 609.717 462.829 641.055 456.659 675.853C432.318 668.243 406.399 667.19 381.52 672.801C377.392 652.24 368.847 632.822 356.476 615.889C344.106 598.956 328.205 584.912 309.873 574.728C291.541 564.545 271.216 558.464 250.303 556.908C229.391 555.351 208.389 558.356 188.752 565.714C184.066 545.077 174.915 525.717 161.943 508.997C148.971 492.276 132.493 478.601 113.669 468.933C94.8436 459.265 74.129 453.839 52.9818 453.037C31.8347 452.235 10.7685 456.076 -8.73468 464.29Z" fill="white"/>
<g opacity="0.6">
<path d="M394.05 865.589C394.054 885.781 388.07 905.521 376.854 922.313C365.638 939.104 349.694 952.192 331.04 959.921C312.385 967.65 291.857 969.673 272.052 965.735C252.247 961.796 234.055 952.073 219.777 937.795C205.499 923.517 195.776 905.325 191.837 885.52C187.899 865.715 189.922 845.187 197.651 826.533C205.381 807.878 218.468 791.934 235.26 780.718C252.051 769.502 271.791 763.518 291.984 763.522C319.053 763.522 345.014 774.275 364.156 793.417C383.297 812.558 394.05 838.519 394.05 865.589Z" fill="white"/>
<path d="M460.563 945.808C489.719 916.652 489.719 869.382 460.563 840.226C431.408 811.07 384.137 811.07 354.982 840.226C325.826 869.381 325.826 916.652 354.982 945.808C384.137 974.963 431.408 974.963 460.563 945.808Z" fill="white"/>
<path d="M616.456 868.641C616.456 885.817 611.363 902.608 601.82 916.89C592.277 931.172 578.714 942.303 562.845 948.876C546.976 955.449 529.514 957.169 512.667 953.818C495.821 950.467 480.346 942.196 468.201 930.05C456.055 917.905 447.784 902.43 444.433 885.584C441.082 868.737 442.802 851.275 449.375 835.406C455.948 819.537 467.079 805.974 481.361 796.431C495.643 786.888 512.434 781.795 529.61 781.795C541.016 781.792 552.31 784.037 562.848 788.4C573.386 792.764 582.96 799.161 591.025 807.226C599.09 815.29 605.487 824.865 609.851 835.403C614.214 845.941 616.459 857.235 616.456 868.641Z" fill="white"/>
<path d="M709.306 883.801C709.306 898.241 705.024 912.357 697.001 924.364C688.979 936.37 677.576 945.728 664.235 951.254C650.894 956.78 636.214 958.226 622.051 955.409C607.889 952.592 594.879 945.638 584.669 935.428C574.458 925.217 567.504 912.208 564.687 898.045C561.87 883.882 563.316 869.202 568.842 855.861C574.368 842.52 583.726 831.117 595.733 823.095C607.739 815.072 621.855 810.79 636.295 810.79C645.884 810.788 655.379 812.674 664.238 816.343C673.098 820.011 681.147 825.389 687.928 832.169C694.708 838.949 700.086 846.999 703.754 855.858C707.422 864.717 709.309 874.213 709.306 883.801Z" fill="white"/>
<path d="M796.253 847.376C796.253 862.142 791.874 876.576 783.671 888.853C775.467 901.131 763.807 910.7 750.165 916.35C736.524 922.001 721.512 923.48 707.03 920.599C692.548 917.718 679.246 910.608 668.805 900.167C658.364 889.726 651.253 876.423 648.372 861.941C645.492 847.459 646.97 832.448 652.621 818.806C658.271 805.164 667.841 793.504 680.118 785.301C692.395 777.097 706.829 772.719 721.595 772.719C741.396 772.719 760.385 780.584 774.386 794.585C788.387 808.586 796.253 827.576 796.253 847.376Z" fill="white"/>
<path d="M1213.68 865.589C1213.67 885.781 1219.66 905.521 1230.87 922.312C1242.09 939.104 1258.03 952.191 1276.69 959.921C1295.34 967.65 1315.87 969.673 1335.67 965.735C1355.48 961.796 1373.67 952.073 1387.95 937.795C1402.23 923.517 1411.95 905.325 1415.89 885.52C1419.83 865.715 1417.8 845.187 1410.07 826.532C1402.34 807.878 1389.26 791.934 1372.47 780.718C1355.67 769.502 1335.93 763.518 1315.74 763.522C1288.67 763.522 1262.71 774.275 1243.57 793.417C1224.43 812.558 1213.68 838.519 1213.68 865.589Z" fill="white"/>
<path d="M1268.95 921.587C1284.72 883.494 1266.63 839.821 1228.54 824.043C1190.45 808.264 1146.77 826.353 1131 864.447C1115.22 902.54 1133.31 946.213 1171.4 961.992C1209.49 977.77 1253.17 959.681 1268.95 921.587Z" fill="white"/>
<path d="M991.25 868.641C991.25 885.817 996.343 902.608 1005.89 916.89C1015.43 931.172 1028.99 942.303 1044.86 948.876C1060.73 955.449 1078.19 957.169 1095.04 953.818C1111.88 950.467 1127.36 942.196 1139.5 930.05C1151.65 917.905 1159.92 902.43 1163.27 885.584C1166.62 868.737 1164.9 851.275 1158.33 835.406C1151.76 819.537 1140.63 805.974 1126.34 796.431C1112.06 786.888 1095.27 781.795 1078.1 781.795C1066.69 781.792 1055.4 784.037 1044.86 788.4C1034.32 792.764 1024.75 799.161 1016.68 807.226C1008.62 815.29 1002.22 824.865 997.855 835.403C993.492 845.941 991.247 857.235 991.25 868.641Z" fill="white"/>
<path d="M915.066 865.589C915.066 875.517 918.01 885.223 923.526 893.478C929.042 901.734 936.882 908.168 946.055 911.967C955.228 915.767 965.321 916.761 975.059 914.824C984.797 912.887 993.742 908.106 1000.76 901.085C1007.78 894.065 1012.56 885.12 1014.5 875.382C1016.44 865.644 1015.44 855.551 1011.64 846.378C1007.84 837.205 1001.41 829.365 993.155 823.849C984.9 818.333 975.194 815.389 965.266 815.389C951.952 815.389 939.183 820.677 929.769 830.092C920.355 839.506 915.066 852.275 915.066 865.589Z" fill="white"/>
<path d="M835.85 816.834C835.85 826.763 838.794 836.469 844.31 844.724C849.826 852.979 857.667 859.414 866.839 863.213C876.012 867.013 886.106 868.007 895.844 866.07C905.582 864.133 914.526 859.352 921.547 852.331C928.568 845.311 933.349 836.366 935.286 826.628C937.223 816.89 936.228 806.796 932.429 797.624C928.629 788.451 922.195 780.611 913.94 775.095C905.684 769.579 895.979 766.634 886.05 766.634C872.736 766.634 859.968 771.923 850.553 781.338C841.139 790.752 835.85 803.521 835.85 816.834Z" fill="white"/>
</g>
<path d="M1514.73 1109.34V672.821C1495.23 664.607 1474.17 660.766 1453.02 661.568C1431.87 662.37 1411.16 667.796 1392.33 677.464C1373.51 687.132 1357.03 700.807 1344.06 717.527C1331.08 734.248 1321.93 753.608 1317.25 774.245C1297.61 766.887 1276.61 763.881 1255.7 765.437C1234.79 766.992 1214.47 773.07 1196.13 783.252C1177.8 793.434 1161.9 807.475 1149.53 824.406C1137.16 841.337 1128.61 860.753 1124.48 881.311C1114.06 878.968 1103.41 877.782 1092.73 877.777C1078.01 877.754 1063.38 879.995 1049.34 884.424C1043.17 849.626 1024.48 818.289 996.797 796.324C969.112 774.36 934.346 763.286 899.057 765.193C863.768 767.1 830.398 781.856 805.241 806.676C780.084 831.497 764.88 864.666 762.498 899.925C751.76 890.04 738.626 883.132 724.396 879.885C710.167 876.638 695.336 877.165 681.373 881.414C667.41 885.662 654.799 893.485 644.79 904.107C634.78 914.729 627.72 927.782 624.307 941.973C601.067 924.574 573.377 914.108 544.439 911.784C515.5 909.46 486.495 915.374 460.776 928.841C454.88 907.995 444.65 888.629 430.754 872.01C416.858 855.391 399.61 841.893 380.138 832.398C360.666 822.904 339.409 817.628 317.758 816.915C296.106 816.201 274.548 820.068 254.494 828.26C233.134 779.737 193.623 741.508 144.423 721.759C95.2232 702.01 40.2458 702.311 -8.73468 722.599V1109.34H1514.73Z" fill="white"/>
<path d="M262.325 157.849C261.823 133.351 248.068 113.673 231.101 113.673C227.516 113.791 223.996 114.664 220.771 116.235C217.546 117.805 214.689 120.039 212.386 122.789C203.872 105.32 184.073 93.0909 161.022 93.0909C155.744 93.1049 150.489 93.7794 145.379 95.0989C140.399 79.557 129.596 68.774 117.046 68.774C107.749 68.774 99.4363 74.798 93.6934 84.075C88.2829 75.9197 80.9177 69.2478 72.2688 64.6674C63.62 60.0869 53.9624 57.7435 44.1761 57.8505C33.9355 57.7208 23.8407 60.2849 14.9033 65.2857C5.9659 70.2866 -1.50019 77.5486 -6.74677 86.344C-35.2604 88.854 -57.7901 104.035 -61.1636 123.131C-64.1763 122.625 -67.225 122.363 -70.2799 122.347C-98.914 122.347 -129.958 143.371 -129.958 169.295C-129.958 185.359 -113.111 199.696 -99.3959 208.129C-101.19 211.964 -102.129 216.144 -102.147 220.378C-102.147 241.362 -79.356 258.369 -51.224 258.369C-35.8025 258.369 -22.0276 253.249 -12.6704 245.177C-4.45765 242.908 2.81131 236.743 8.17267 228.008C16.8071 253.108 34.6381 270.377 55.2603 270.377C72.6496 270.377 88.0509 258.108 97.6492 239.213C102.717 243.594 109.164 246.053 115.862 246.161C125.48 246.161 134.215 240.799 140.821 232.105C147.508 246.522 158.893 256.02 171.704 256.02C185.479 256.02 197.487 245.097 203.832 228.912C277.044 239.715 299.955 211.121 299.955 189.274C300.035 176.463 282.325 155.881 262.325 157.849Z" fill="url(#paint4_linear_49_534)"/>
<path d="M404.893 270.377C418.287 222.466 340.637 201.643 298.469 230.217C294.865 222.209 289.153 215.33 281.945 210.314C274.736 205.298 266.3 202.334 257.539 201.739C248.777 201.143 240.018 202.937 232.196 206.931C224.375 210.925 217.785 216.968 213.129 224.414C211.012 224.008 208.86 223.806 206.704 223.812C199.289 223.706 192.052 226.09 186.151 230.582C180.251 235.074 176.026 241.415 174.154 248.59C128.331 241.904 106.344 264.775 106.344 282.967C106.344 302.023 139.175 317.485 179.676 317.485C184.214 317.485 188.632 317.264 192.929 316.883C200.66 338.308 251.743 352.886 284.654 318.73C302.365 343.489 349.914 343.489 359.573 311.14C388.829 339.111 465.133 291.562 404.893 270.377Z" fill="url(#paint5_linear_49_534)"/>
</g>
<defs>
<linearGradient id="paint0_linear_49_534" x1="753" y1="-4.85528" x2="753" y2="844.482" gradientUnits="userSpaceOnUse">
<stop offset="0.08" stop-color="#6FA6D8"/>
<stop offset="0.16" stop-color="#A0C5E5"/>
<stop offset="0.24" stop-color="#CCE0F1"/>
<stop offset="0.3" stop-color="#E7F1F8"/>
<stop offset="0.34" stop-color="#F1F7FB"/>
<stop offset="0.53" stop-color="#F9D399"/>
<stop offset="0.66" stop-color="#FDBE5F"/>
</linearGradient>
<linearGradient id="paint1_linear_49_534" x1="841.151" y1="224.354" x2="837.979" y2="136.624" gradientUnits="userSpaceOnUse">
<stop stop-color="#9CD9E9"/>
<stop offset="0.1" stop-color="#BAE4F0"/>
<stop offset="0.22" stop-color="#D3EEF5"/>
<stop offset="0.35" stop-color="#E7F6FA"/>
<stop offset="0.49" stop-color="#F5FBFD"/>
<stop offset="0.67" stop-color="#FDFEFE"/>
<stop offset="1" stop-color="white"/>
</linearGradient>
<linearGradient id="paint2_linear_49_534" x1="1356.26" y1="423.929" x2="1344.98" y2="113.111" gradientUnits="userSpaceOnUse">
<stop stop-color="#9CD9E9"/>
<stop offset="0.1" stop-color="#BAE4F0"/>
<stop offset="0.22" stop-color="#D3EEF5"/>
<stop offset="0.35" stop-color="#E7F6FA"/>
<stop offset="0.49" stop-color="#F5FBFD"/>
<stop offset="0.67" stop-color="#FDFEFE"/>
<stop offset="1" stop-color="white"/>
</linearGradient>
<linearGradient id="paint3_linear_49_534" x1="700.23" y1="394.833" x2="693.664" y2="214.073" gradientUnits="userSpaceOnUse">
<stop stop-color="#9CD9E9"/>
<stop offset="0.1" stop-color="#BAE4F0"/>
<stop offset="0.22" stop-color="#D3EEF5"/>
<stop offset="0.35" stop-color="#E7F6FA"/>
<stop offset="0.49" stop-color="#F5FBFD"/>
<stop offset="0.67" stop-color="#FDFEFE"/>
<stop offset="1" stop-color="white"/>
</linearGradient>
<linearGradient id="paint4_linear_49_534" x1="93.4324" y1="410.516" x2="80.4205" y2="52.6096" gradientUnits="userSpaceOnUse">
<stop stop-color="#9CD9E9"/>
<stop offset="0.01" stop-color="#9EDAE9"/>
<stop offset="0.2" stop-color="#C1E7F1"/>
<stop offset="0.4" stop-color="#DCF2F7"/>
<stop offset="0.59" stop-color="#F0F9FC"/>
<stop offset="0.79" stop-color="#FBFEFE"/>
<stop offset="1" stop-color="white"/>
</linearGradient>
<linearGradient id="paint5_linear_49_534" x1="274.474" y1="370.938" x2="259.173" y2="202.547" gradientUnits="userSpaceOnUse">
<stop stop-color="#9CD9E9"/>
<stop offset="0.1" stop-color="#BAE4F0"/>
<stop offset="0.22" stop-color="#D3EEF5"/>
<stop offset="0.35" stop-color="#E7F6FA"/>
<stop offset="0.49" stop-color="#F5FBFD"/>
<stop offset="0.67" stop-color="#FDFEFE"/>
<stop offset="1" stop-color="white"/>
</linearGradient>
</defs>
</svg>
